<mxfile host="Electron" modified="2023-04-27T00:17:18.949Z" agent="Mozilla/5.0 (X11; Linux x86_64) AppleWebKit/537.36 (KHTML, like Gecko) draw.io/21.2.1 Chrome/112.0.5615.87 Electron/24.1.2 Safari/537.36" etag="VDQIMaDz2CUinmq8l3W9" version="21.2.1" type="device">
  <diagram name="Page-1" id="HeRpg6weIl57osCbVmQm">
    <mxGraphModel dx="1434" dy="860" grid="1" gridSize="10" guides="1" tooltips="1" connect="1" arrows="1" fold="1" page="1" pageScale="1" pageWidth="850" pageHeight="1100" math="0" shadow="0">
      <root>
        <mxCell id="0" />
        <mxCell id="1" parent="0" />
        <mxCell id="gFPSnXjlt5SO9rUV7C5C-42" value="&lt;font style=&quot;font-size: 14px;&quot; color=&quot;#3633ff&quot;&gt;LWN Simulator&lt;/font&gt;" style="html=1;fontStyle=1;align=left;verticalAlign=top;spacing=0;labelBorderColor=none;fillColor=#fff2cc;dashed=1;strokeWidth=2;strokeColor=#d6b656;spacingLeft=4;spacingTop=-3;gradientColor=#ffd966;" vertex="1" parent="1">
          <mxGeometry x="80" y="410" width="300" height="300" as="geometry" />
        </mxCell>
        <mxCell id="gFPSnXjlt5SO9rUV7C5C-8" value="" style="html=1;rounded=0;strokeColor=none;" edge="1" parent="1">
          <mxGeometry width="100" relative="1" as="geometry">
            <mxPoint x="370" y="420" as="sourcePoint" />
            <mxPoint x="470" y="420" as="targetPoint" />
          </mxGeometry>
        </mxCell>
        <mxCell id="gFPSnXjlt5SO9rUV7C5C-21" value="&lt;b&gt;LoRa Node&lt;/b&gt;" style="shape=ext;double=1;rounded=0;whiteSpace=wrap;html=1;fillColor=#f5f5f5;fontColor=#333333;strokeColor=#666666;" vertex="1" parent="1">
          <mxGeometry x="82.5" y="540" width="100" height="40" as="geometry" />
        </mxCell>
        <mxCell id="gFPSnXjlt5SO9rUV7C5C-23" value="Forwarder" style="rounded=0;whiteSpace=wrap;html=1;" vertex="1" parent="1">
          <mxGeometry x="240" y="560" width="120" height="60" as="geometry" />
        </mxCell>
        <mxCell id="gFPSnXjlt5SO9rUV7C5C-24" value="" style="rounded=0;whiteSpace=wrap;html=1;" vertex="1" parent="1">
          <mxGeometry x="240" y="480" width="120" height="160" as="geometry" />
        </mxCell>
        <mxCell id="gFPSnXjlt5SO9rUV7C5C-25" value="&lt;b&gt;Virtual&lt;br&gt;Interface&lt;/b&gt;" style="whiteSpace=wrap;html=1;fillColor=#dae8fc;strokeColor=#6c8ebf;" vertex="1" parent="1">
          <mxGeometry x="240" y="530" width="120" height="60" as="geometry" />
        </mxCell>
        <mxCell id="gFPSnXjlt5SO9rUV7C5C-28" value="&lt;b&gt;Real&lt;br&gt;Interface&lt;/b&gt;" style="whiteSpace=wrap;html=1;fillColor=#d5e8d4;strokeColor=#82b366;" vertex="1" parent="1">
          <mxGeometry x="240" y="590" width="120" height="50" as="geometry" />
        </mxCell>
        <mxCell id="gFPSnXjlt5SO9rUV7C5C-29" value="&lt;b&gt;Packet forwarder&lt;/b&gt;" style="rounded=0;whiteSpace=wrap;html=1;fillColor=#fff2cc;strokeColor=#d6b656;" vertex="1" parent="1">
          <mxGeometry x="240" y="640" width="120" height="60" as="geometry" />
        </mxCell>
        <mxCell id="gFPSnXjlt5SO9rUV7C5C-30" value="&lt;b&gt;Gateway&lt;/b&gt;" style="rounded=0;whiteSpace=wrap;html=1;fillColor=#60a917;fontColor=#ffffff;strokeColor=#2D7600;" vertex="1" parent="1">
          <mxGeometry x="240" y="480" width="120" height="50" as="geometry" />
        </mxCell>
        <mxCell id="gFPSnXjlt5SO9rUV7C5C-31" value="" style="endArrow=classic;startArrow=classic;html=1;rounded=0;exitX=1;exitY=0.5;exitDx=0;exitDy=0;entryX=0;entryY=0.5;entryDx=0;entryDy=0;strokeWidth=3;" edge="1" parent="1" source="gFPSnXjlt5SO9rUV7C5C-21" target="gFPSnXjlt5SO9rUV7C5C-25">
          <mxGeometry width="50" height="50" relative="1" as="geometry">
            <mxPoint x="560" y="600" as="sourcePoint" />
            <mxPoint x="610" y="550" as="targetPoint" />
          </mxGeometry>
        </mxCell>
        <mxCell id="gFPSnXjlt5SO9rUV7C5C-34" value="" style="rounded=0;whiteSpace=wrap;html=1;fillColor=#dae8fc;strokeColor=#6c8ebf;gradientColor=#7ea6e0;" vertex="1" parent="1">
          <mxGeometry x="600" y="570" width="240" height="140" as="geometry" />
        </mxCell>
        <mxCell id="gFPSnXjlt5SO9rUV7C5C-35" value="" style="outlineConnect=0;dashed=0;verticalLabelPosition=bottom;verticalAlign=top;align=center;html=1;shape=mxgraph.aws3.action;fillColor=#5294CF;gradientColor=none;" vertex="1" parent="1">
          <mxGeometry x="625" y="640" width="60" height="59.5" as="geometry" />
        </mxCell>
        <mxCell id="gFPSnXjlt5SO9rUV7C5C-36" value="" style="outlineConnect=0;dashed=0;verticalLabelPosition=bottom;verticalAlign=top;align=center;html=1;shape=mxgraph.aws3.echo;fillColor=#205B99;gradientColor=none;" vertex="1" parent="1">
          <mxGeometry x="770" y="635" width="40.5" height="65" as="geometry" />
        </mxCell>
        <mxCell id="gFPSnXjlt5SO9rUV7C5C-37" value="&lt;b&gt;Network Server&lt;/b&gt;" style="text;html=1;align=center;verticalAlign=middle;resizable=0;points=[];autosize=1;strokeColor=none;fillColor=none;" vertex="1" parent="1">
          <mxGeometry x="735.25" y="600" width="110" height="30" as="geometry" />
        </mxCell>
        <mxCell id="gFPSnXjlt5SO9rUV7C5C-38" value="&lt;b&gt;Gateway bridge&lt;/b&gt;" style="text;html=1;align=center;verticalAlign=middle;resizable=0;points=[];autosize=1;strokeColor=none;fillColor=none;" vertex="1" parent="1">
          <mxGeometry x="600" y="605.5" width="110" height="30" as="geometry" />
        </mxCell>
        <mxCell id="gFPSnXjlt5SO9rUV7C5C-39" value="&lt;b&gt;&lt;font style=&quot;font-size: 14px;&quot;&gt;Chirpstack&amp;nbsp;&lt;/font&gt;&lt;/b&gt;" style="text;html=1;align=center;verticalAlign=middle;resizable=0;points=[];autosize=1;strokeColor=none;fillColor=none;strokeWidth=3;" vertex="1" parent="1">
          <mxGeometry x="675" y="575.5" width="100" height="30" as="geometry" />
        </mxCell>
        <mxCell id="gFPSnXjlt5SO9rUV7C5C-40" value="" style="endArrow=classic;startArrow=classic;html=1;rounded=0;strokeWidth=4;exitX=1;exitY=0.5;exitDx=0;exitDy=0;exitPerimeter=0;" edge="1" parent="1" source="gFPSnXjlt5SO9rUV7C5C-35" target="gFPSnXjlt5SO9rUV7C5C-36">
          <mxGeometry width="50" height="50" relative="1" as="geometry">
            <mxPoint x="673" y="659" as="sourcePoint" />
            <mxPoint x="740" y="659" as="targetPoint" />
          </mxGeometry>
        </mxCell>
        <mxCell id="gFPSnXjlt5SO9rUV7C5C-33" value="" style="endArrow=classic;startArrow=classic;html=1;rounded=0;exitX=1;exitY=0.5;exitDx=0;exitDy=0;strokeWidth=4;entryX=0;entryY=0.5;entryDx=0;entryDy=0;entryPerimeter=0;" edge="1" parent="1" source="gFPSnXjlt5SO9rUV7C5C-29" target="gFPSnXjlt5SO9rUV7C5C-35">
          <mxGeometry width="50" height="50" relative="1" as="geometry">
            <mxPoint x="560" y="600" as="sourcePoint" />
            <mxPoint x="500" y="720" as="targetPoint" />
          </mxGeometry>
        </mxCell>
        <mxCell id="gFPSnXjlt5SO9rUV7C5C-41" value="&lt;b&gt;Semtech UDP protocol&lt;/b&gt;" style="text;html=1;align=center;verticalAlign=middle;resizable=0;points=[];autosize=1;strokeColor=none;fillColor=none;" vertex="1" parent="1">
          <mxGeometry x="425" y="635.5" width="150" height="30" as="geometry" />
        </mxCell>
      </root>
    </mxGraphModel>
  </diagram>
</mxfile>
